subject01_walk1_grf.mot																		
version=1																		
nRows=32							0.05											
nColumns=19																		
inDegrees=yes																		
endheader																		
time	ground_force_vx	ground_force_vy	ground_force_vz	ground_force_px	ground_force_py	ground_force_pz	1_ground_force_vx	1_ground_force_vy	1_ground_force_vz	1_ground_force_px	1_ground_force_py	1_ground_force_pz	ground_torque_x	ground_torque_y	ground_torque_z	1_ground_torque_x	1_ground_torque_y	1_ground_torque_z
0.625	0.86776424	22.05670407	-0.820509024	0.80243879	-0.0075	0.15472273	69.671431	456.4737736	29.27200478	0.33939783	-0.0075	-0.18658813	0.455975899	-0.008104749	-0.02583935	0	1.291770849	0
0.6267	1.465291901	25.37227309	-0.769829733	0.80298932	-0.0075	0.15470977	70.30027419	455.7318347	29.09205915	0.33748706	-0.0075	-0.18635703	0.469296086	0.021652207	0.016845395	0	1.283352004	0
0.6283	2.087793826	28.99428873	-0.661605307	0.80351333	-0.0075	0.15469746	70.94915385	454.8647985	28.88779173	0.33557766	-0.0075	-0.1861253	0.480153883	0.05523893	0.059617436	0	1.27823718	0
0.63	2.717359128	32.91641597	-0.485525632	0.80401064	-0.0075	0.15468579	71.61819871	453.875069	28.6582864	0.33368121	-0.0075	-0.18589659	0.487750753	0.091762522	0.102013384	0	1.27684146	0
0.6317	3.33356398	37.12677662	-0.2325052	0.80448106	-0.0075	0.15467478	72.30592995	452.76603	28.4034896	0.33181093	-0.0075	-0.18567479	0.491277023	0.130070936	0.143520778	0	1.279281509	0
0.6333	3.913987162	41.6079428	0.104781375	0.80492441	-0.0075	0.15466441	73.00918367	451.5416728	28.12422846	0.32998099	-0.0075	-0.18546388	0.489955533	0.168784248	0.183554156	0	1.285365707	0
0.635	4.43496312	46.33711744	0.531349354	0.8053405	-0.0075	0.15465469	73.72320656	450.2060863	27.82209991	0.32820576	-0.0075	-0.18526771	0.483122477	0.206379403	0.221434854	0	1.294645357	0
0.6367	4.872290854	51.28650488	1.049534035	0.80572915	-0.0075	0.15464564	74.44173633	448.7630498	27.49939118	0.32649901	-0.0075	-0.18508979	0.470262993	0.241238029	0.25637285	0	1.306442594	0
0.6383	5.202289265	56.42388245	1.658642954	0.80609016	-0.0075	0.15463723	75.15725475	447.2154655	27.15883569	0.32487295	-0.0075	-0.18493309	0.451084591	0.271789446	0.287496087	0	1.319949617	0
0.64	5.402594654	61.71334672	2.354801092	0.80642336	-0.0075	0.15462949	75.86127813	445.5649548	26.80348298	0.32333743	-0.0075	-0.18479982	0.425561465	0.296551581	0.313815476	0	1.334281718	0
0.6417	5.453204906	67.11622643	3.130941676	0.80672856	-0.0075	0.15462241	76.54479012	443.8114586	26.43642275	0.32189929	-0.0075	-0.18469127	0.393974883	0.314256783	0.334273265	0	1.348617336	0
0.6433	5.337336275	72.59207733	3.976962143	0.80700557	-0.0075	0.15461599	77.19861896	441.952938	26.06057704	0.32056162	-0.0075	-0.1846077	0.356926823	0.323920279	0.347748854	0	1.362250323	0
0.645	5.042274192	78.09981805	4.880031158	0.80725421	-0.0075	0.15461024	77.81388765	439.9852168	25.67850819	0.31932342	-0.0075	-0.18454822	0.315337796	0.324918206	0.35311494	0	1.374656361	0
0.6467	4.560035367	83.59886398	5.825051015	0.80747429	-0.0075	0.15460516	78.3824829	437.9018986	25.29221063	0.31817945	-0.0075	-0.18451082	0.270429639	0.317039177	0.349262757	0	1.385562835	0
0.6483	3.887818381	89.0502791	6.795273055	0.80766563	-0.0075	0.15460075	78.89742894	435.6945162	24.90302988	0.31712025	-0.0075	-0.18449237	0.223667015	0.300501093	0.33516047	0	1.394936734	0
0.65	3.028398137	94.41784396	7.772942027	0.80782804	-0.0075	0.15459701	79.35325497	433.3526996	24.51152437	0.31613248	-0.0075	-0.18448874	0.176714964	0.275989573	0.30991366	0	1.403001761	0
0.6517	1.990004596	99.66904934	8.740069042	0.80796134	-0.0075	0.15459394	79.74624296	430.8646064	24.11753504	0.31519952	-0.0075	-0.1844949	0.131338721	0.244574849	0.27279453	0	1.410154576	0
0.6533	0.786259982	104.7759035	9.679144723	0.80806534	-0.0075	0.15459156	80.07463188	428.2173346	23.72015382	0.31430223	-0.0075	-0.18450518	0.089341588	0.207715912	0.223317782	0	1.416956426	0
0.655	-0.564405811	109.7155808	10.57389451	0.80813986	-0.0075	0.15458985	80.33859712	425.397537	23.31787396	0.31341989	-0.0075	-0.18451345	0.052449543	0.167143711	0.161253804	0	1.423992645	0
0.6567	-2.039355071	114.4708721	11.40989504	0.8081847	-0.0075	0.15458882	80.54022025	422.3919888	22.90872413	0.31253126	-0.0075	-0.18451344	0.022229633	0.124773878	0.086683665	0	1.431793577	0
0.6583	-3.612681027	119.030377	12.17512436	0.80819969	-0.0075	0.15458848	80.68324226	419.1882213	22.49043905	0.31161566	-0.0075	-0.18449895	0	0.082608655	0	0	1.440728076	0
0.66	-5.256228947	123.3885314	12.8603424	0.80738983	-0.0075	0.15469619	80.77275028	415.7751383	22.06069196	0.31065404	-0.0075	-0.18446412	0	0.03296261	0	0	1.450897643	0
0.6617	-6.940734338	127.5453797	13.45928604	0.80652036	-0.0075	0.15472224	80.81477168	412.1435111	21.61725952	0.30962997	-0.0075	-0.18440371	0	-0.014234427	0	0	1.462087058	0
0.6633	-8.63710891	131.5061815	13.96875759	0.80560015	-0.0075	0.15467299	80.81574801	408.2864895	21.15825102	0.30853048	-0.0075	-0.18431327	0	-0.057485813	0	0	1.473697143	0
0.665	-10.31753122	135.2808524	14.38845099	0.80463881	-0.0075	0.15455648	80.78204838	404.1998589	20.6821897	0.30734671	-0.0075	-0.18418938	0	-0.095520788	0	0	1.484796625	0
0.6667	-11.95670554	138.8832635	14.72069484	0.80364622	-0.0075	0.15438229	80.71939601	399.8823191	20.18821921	0.30607431	-0.0075	-0.18402973	0	-0.127415795	0	0	1.494092624	0
0.6683	-13.53270011	142.330471	14.97001226	0.80263258	-0.0075	0.1541612	80.63236951	395.3354599	19.67608005	0.30471367	-0.0075	-0.1838332	0	-0.152580833	0	0	1.50005374	0
0.67	-15.02788308	145.6418866	15.14262353	0.80160767	-0.0075	0.15390499	80.5239565	390.5637232	19.1461737	0.30326978	-0.0075	-0.18359992	0	-0.170841349	0	0	1.500968903	0
0.6717	-16.42943088	148.838483	15.2458328	0.80058073	-0.0075	0.15362586	80.39522307	385.5741562	18.59949703	0.30175191	-0.0075	-0.18333118	0	-0.182418057	0	0	1.495107187	0
0.6733	-17.72967112	151.9419954	15.28745627	0.79955996	-0.0075	0.1533361	80.24507657	380.3760727	18.03753301	0.30017301	-0.0075	-0.18302939	0	-0.187907808	0	0	1.480842504	0
0.675	-18.9261672	154.9742775	15.27521834	0.79855227	-0.0075	0.1530476	80.07019139	374.980644	17.46215461	0.29854892	-0.0075	-0.18269788	0	-0.188289934	0	0	1.456811699	0
0.6767	-20.02146904	157.9566539	15.21623368	0.79756292	-0.0075	0.15277128	79.86512183	369.4003537	16.87540525	0.29689742	-0.0075	-0.18234076	0	-0.184822513	0	0	1.4220944	0
